<?xml version="1.0" encoding="UTF-8"?><svg xmlns="http://www.w3.org/2000/svg" xmlns:xlink="http://www.w3.org/1999/xlink" height="101.7" preserveAspectRatio="xMidYMid" version="1.1" viewBox="-1.5 0.0 257.4 101.7" width="257.4" zoomAndPan="magnify">
 <g>
  <path d="m121 49.796v29.781h-9.44v-73.546l25.05-0.0004c6.04-0.1262 11.89 2.166 16.23 6.3674 4.39 3.952 6.86 9.611 6.78 15.521 0.12 5.943-2.35 11.644-6.78 15.61-4.38 4.178-9.79 6.265-16.23 6.261h-15.61v0.006zm0-34.711v25.674h15.85c3.51 0.104 6.9-1.276 9.35-3.803 2.42-2.36 3.79-5.601 3.79-8.987s-1.37-6.627-3.79-8.987c-2.42-2.581-5.82-4.002-9.35-3.903h-15.85v0.006zm60.39 12.529c6.98 0 12.49 1.866 16.53 5.598 4.05 3.733 6.06 8.85 6.06 15.352v31.013h-9.04v-6.983h-0.41c-3.91 5.751-9.11 8.626-15.61 8.626-5.54 0-10.18-1.643-13.91-4.929-3.63-3.055-5.69-7.582-5.6-12.323 0-5.207 1.97-9.348 5.9-12.423 3.94-3.075 9.19-4.617 15.77-4.624 5.61 0 10.23 1.026 13.86 3.08v-2.159c0.02-3.232-1.41-6.303-3.91-8.362-2.49-2.255-5.75-3.484-9.11-3.445-5.28 0-9.46 2.226-12.53 6.678l-8.32-5.24c4.57-6.573 11.35-9.859 20.32-9.859zm-12.23 36.559c-0.01 2.44 1.16 4.735 3.14 6.162 2.09 1.643 4.68 2.514 7.34 2.464 3.99-0.006 7.81-1.593 10.63-4.412 3.13-2.946 4.69-6.403 4.69-10.37-2.95-2.347-7.05-3.521-12.32-3.521-3.84 0-7.04 0.926-9.6 2.776-2.59 1.878-3.88 4.161-3.88 6.901zm86.7-34.916l-31.55 72.503h-9.76l11.71-25.369-20.74-47.134h10.27l14.99 36.148h0.21l14.58-36.148h10.29z" fill="#5F6368"/>
  <g>
   <path d="m82.824 43.376c0.004-2.879-0.24-5.753-0.727-8.591h-39.846v16.273h22.822c-0.944 5.251-3.992 9.89-8.439 12.839v10.563h13.621c7.974-7.353 12.569-18.227 12.569-31.084z" fill="#4285F4"/>
   <path d="m42.251 84.665c11.402 0 21.003-3.744 28.004-10.199l-13.621-10.563c-3.791 2.57-8.673 4.038-14.383 4.038-11.02 0-20.374-7.43-23.719-17.441h-14.031l-0.0001 10.886c7.1721 14.271 21.778 23.278 37.75 23.279z" fill="#34A853"/>
   <path d="m18.532 50.5c-1.768-5.246-1.768-10.927 0-16.173v-10.885h-14.031c-5.9987 11.936-5.9987 26.007-0.0001 37.944l14.031-10.886z" fill="#FBBC04"/>
   <path d="m42.251 16.887c6.026-0.099 11.848 2.178 16.208 6.338l12.06-12.06c-7.647-7.1819-17.778-11.125-28.268-11.003-15.972 0.00112-30.578 9.0084-37.75 23.28l14.031 10.885c3.345-10.011 12.699-17.44 23.719-17.44z" fill="#EA4335"/>
  </g>
 </g>
</svg>