<?xml version="1.0" encoding="UTF-8"?><svg xmlns="http://www.w3.org/2000/svg" xmlns:xlink="http://www.w3.org/1999/xlink" height="198.5" preserveAspectRatio="xMidYMid" version="1.1" viewBox="0.0 -0.0 255.8 198.5" width="255.8" zoomAndPan="magnify">
 <g>
  <path d="m46.539 198.01v-13.17c0-5.05-3.073-8.34-8.342-8.34-2.634 0-5.488 0.88-7.464 3.73-1.536-2.41-3.731-3.73-7.024-3.73-2.196 0-4.391 0.66-6.147 3.07v-2.63h-4.61v21.07h4.61v-11.63c0-3.74 1.976-5.49 5.049-5.49s4.61 1.97 4.61 5.49v11.63h4.61v-11.63c0-3.74 2.195-5.49 5.049-5.49 3.074 0 4.61 1.97 4.61 5.49v11.63h5.049zm68.271-21.07h-7.46v-6.37h-4.61v6.37h-4.173v4.17h4.173v9.66c0 4.83 1.97 7.68 7.24 7.68 1.98 0 4.17-0.66 5.71-1.54l-1.32-3.95c-1.31 0.88-2.85 1.1-3.95 1.1-2.19 0-3.07-1.32-3.07-3.51v-9.44h7.46v-4.17zm39.08-0.44c-2.64 0-4.39 1.32-5.49 3.07v-2.63h-4.61v21.07h4.61v-11.85c0-3.52 1.54-5.49 4.39-5.49 0.88 0 1.97 0.22 2.85 0.44l1.32-4.39c-0.88-0.22-2.2-0.22-3.07-0.22zm-59.055 2.19c-2.196-1.53-5.269-2.19-8.562-2.19-5.268 0-8.781 2.63-8.781 6.8 0 3.52 2.635 5.49 7.245 6.15l2.195 0.22c2.415 0.44 3.732 1.1 3.732 2.19 0 1.54-1.756 2.64-4.83 2.64-3.073 0-5.488-1.1-7.025-2.2l-2.195 3.52c2.415 1.75 5.708 2.63 9.001 2.63 6.146 0 9.659-2.85 9.659-6.8 0-3.74-2.854-5.71-7.245-6.37l-2.195-0.22c-1.976-0.22-3.512-0.66-3.512-1.98 0-1.53 1.536-2.41 3.951-2.41 2.635 0 5.269 1.1 6.586 1.76l1.976-3.74zm122.5-2.19c-2.63 0-4.39 1.32-5.49 3.07v-2.63h-4.61v21.07h4.61v-11.85c0-3.52 1.54-5.49 4.39-5.49 0.88 0 1.98 0.22 2.86 0.44l1.31-4.39c-0.88-0.22-2.19-0.22-3.07-0.22zm-58.83 10.97c0 6.37 4.39 10.98 11.19 10.98 3.08 0 5.27-0.66 7.47-2.41l-2.2-3.74c-1.75 1.32-3.51 1.98-5.49 1.98-3.73 0-6.36-2.63-6.36-6.81 0-3.95 2.63-6.58 6.36-6.8 1.98 0 3.74 0.66 5.49 1.97l2.2-3.73c-2.2-1.75-4.39-2.41-7.47-2.41-6.8 0-11.19 4.61-11.19 10.97zm42.58 0v-10.53h-4.61v2.63c-1.53-1.97-3.73-3.07-6.58-3.07-5.93 0-10.54 4.61-10.54 10.97 0 6.37 4.61 10.98 10.54 10.98 3.07 0 5.27-1.1 6.58-3.07v2.63h4.61v-10.54zm-16.9 0c0-3.73 2.42-6.8 6.37-6.8 3.73 0 6.36 2.85 6.36 6.8 0 3.74-2.63 6.81-6.36 6.81-3.95-0.22-6.37-3.07-6.37-6.81zm-55.1-10.97c-6.15 0-10.54 4.39-10.54 10.97 0 6.59 4.39 10.98 10.76 10.98 3.07 0 6.15-0.88 8.56-2.85l-2.19-3.3c-1.76 1.32-3.96 2.2-6.15 2.2-2.85 0-5.71-1.32-6.37-5.05h15.59v-1.76c0.22-6.8-3.73-11.19-9.66-11.19zm0 3.95c2.85 0 4.83 1.76 5.27 5.05h-10.98c0.44-2.86 2.42-5.05 5.71-5.05zm114.37 7.02v-18.88h-4.61v10.98c-1.53-1.97-3.73-3.07-6.58-3.07-5.93 0-10.54 4.61-10.54 10.97 0 6.37 4.61 10.98 10.54 10.98 3.07 0 5.27-1.1 6.58-3.07v2.63h4.61v-10.54zm-16.9 0c0-3.73 2.41-6.8 6.37-6.8 3.73 0 6.36 2.85 6.36 6.8 0 3.74-2.63 6.81-6.36 6.81-3.96-0.22-6.37-3.07-6.37-6.81zm-154.11 0v-10.53h-4.61v2.63c-1.537-1.97-3.732-3.07-6.586-3.07-5.927 0-10.537 4.61-10.537 10.97 0 6.37 4.61 10.98 10.537 10.98 3.074 0 5.269-1.1 6.586-3.07v2.63h4.61v-10.54zm-17.123 0c0-3.73 2.415-6.8 6.366-6.8 3.732 0 6.367 2.85 6.367 6.8 0 3.74-2.635 6.81-6.367 6.81-3.951-0.22-6.366-3.07-6.366-6.81z"/>
  <rect fill="#FF5F00" height="124.25" width="69.15" x="93.298" y="16.903"/>
  <path d="m97.689 79.029c0-25.245 11.851-47.637 30.071-62.126-13.39-10.537-30.291-16.903-48.731-16.903-43.686-0.000019474-79.029 35.343-79.029 79.029 0.0000017258 43.681 35.343 79.031 79.029 79.031 18.44 0 35.341-6.37 48.731-16.91-18.22-14.26-30.071-36.88-30.071-62.121z" fill="#EB001B"/>
  <path d="m255.75 79.029c0 43.681-35.35 79.031-79.03 79.031-18.44 0-35.35-6.37-48.74-16.91 18.44-14.48 30.08-36.88 30.08-62.121 0-25.245-11.86-47.637-30.08-62.126 13.39-10.537 30.3-16.903 48.74-16.903 43.68-0.000019474 79.03 35.563 79.03 79.029z" fill="#F79E1B"/>
 </g>
</svg>