<?xml version="1.0" encoding="UTF-8"?><svg xmlns="http://www.w3.org/2000/svg" xmlns:xlink="http://www.w3.org/1999/xlink" height="300.9" preserveAspectRatio="xMidYMid" version="1.1" viewBox="-0.6 0.8 258.1 300.9" width="258.1" zoomAndPan="magnify">
 <g>
  <path d="m217.17 23.507c-13.94-15.882-39.12-22.691-71.35-22.691l-93.517-0.00025c-6.593 0-12.195 4.7946-13.227 11.295l-38.94 246.97c-0.77366 4.87 2.9971 9.28 7.9333 9.28h57.736l14.5-91.97-0.449 2.88c1.032-6.51 6.592-11.3 13.176-11.3h27.438c53.9 0 96.1-21.89 108.43-85.221 0.36-1.873 0.68-3.696 0.95-5.477-1.55-0.824-1.55-0.824 0 0 3.68-23.407-0.02-39.339-12.68-53.765" fill="#27346A"/>
  <path d="m102.4 68.84c1.54-0.733 3.25-1.141 5.05-1.141h73.32c8.68 0 16.78 0.566 24.18 1.757 2.12 0.341 4.18 0.732 6.18 1.182 1.99 0.441 3.93 0.94 5.81 1.49 0.94 0.274 1.87 0.557 2.78 0.857 3.63 1.215 7.02 2.63 10.13 4.287 3.68-23.416-0.02-39.339-12.68-53.765-13.94-15.882-39.12-22.691-71.35-22.691l-93.525-0.00025c-6.585 0-12.187 4.7946-13.219 11.295l-38.94 246.96c-0.77366 4.88 2.9971 9.28 7.9249 9.28h57.744l30.083-190.77c0.616-3.912 3.129-7.117 6.512-8.74z" fill="#27346A"/>
  <path d="m228.9 82.749c-12.33 63.321-54.53 85.221-108.43 85.221h-27.446c-6.584 0-12.145 4.79-13.168 11.3l-18.039 114.35c-0.674 4.26 2.622 8.13 6.934 8.13h48.669c5.76 0 10.66-4.2 11.56-9.89l0.48-2.48 9.17-58.13 0.59-3.21c0.9-5.69 5.8-9.88 11.56-9.88h7.29c47.15 0 84.06-19.16 94.85-74.55 4.5-23.15 2.17-42.48-9.74-56.058-3.61-4.112-8.1-7.508-13.33-10.28-0.28 1.789-0.59 3.604-0.95 5.477z" fill="#2790C3"/>
  <path d="m216.95 72.128c-1.88-0.55-3.82-1.049-5.82-1.49-1.99-0.442-4.06-0.833-6.17-1.174-7.41-1.199-15.5-1.765-24.19-1.765h-73.31c-1.81 0-3.52 0.408-5.05 1.149-3.393 1.623-5.898 4.82-6.514 8.74l-15.583 98.802-0.449 2.88c1.024-6.51 6.584-11.3 13.168-11.3h27.448c53.89 0 96.1-21.89 108.43-85.221 0.36-1.873 0.67-3.688 0.95-5.477-3.12-1.648-6.5-3.072-10.14-4.279-0.9-0.299-1.83-0.591-2.77-0.865" fill="#1F264F"/>
 </g>
</svg>