<?xml version="1.0" encoding="utf-8"?>
<!-- Generator: Adobe Illustrator 16.0.0, SVG Export Plug-In . SVG Version: 6.00 Build 0)  -->
<!DOCTYPE svg PUBLIC "-//W3C//DTD SVG 1.1//EN" "http://www.w3.org/Graphics/SVG/1.1/DTD/svg11.dtd">
<svg version="1.1" id="Layer_1" xmlns="http://www.w3.org/2000/svg" xmlns:xlink="http://www.w3.org/1999/xlink" x="0px" y="0px"
	 width="720px" height="720px" viewBox="0 0 720 720" enable-background="new 0 0 720 720" xml:space="preserve">
<rect fill="#030202" width="719.999" height="720"/>
<g>
	<path fill="#0D71B9" d="M226.615,372.199c0.325,0,0.6,0.064,0.822,0.193s0.441,0.381,0.655,0.756l4.252,7.514
		c0.043,0.083,0.053,0.151,0.032,0.206c-0.021,0.054-0.083,0.081-0.187,0.081h-1.631c-0.146,0-0.244-0.054-0.296-0.162l-0.912-1.613
		h-6.038l-0.887,1.613c-0.06,0.108-0.158,0.162-0.295,0.162h-1.67c-0.112,0-0.178-0.027-0.199-0.081
		c-0.021-0.055-0.011-0.123,0.032-0.206l4.214-7.514c0.214-0.375,0.424-0.627,0.629-0.756s0.445-0.193,0.72-0.193H226.615z
		 M224.123,377.724h4.42l-2.043-3.662c-0.034-0.059-0.082-0.088-0.141-0.088h-0.077c-0.06,0-0.107,0.029-0.142,0.088
		L224.123,377.724z"/>
	<path fill="#0D71B9" d="M244.717,372.199c0.206,0,0.377,0.008,0.514,0.024c0.137,0.017,0.257,0.052,0.359,0.106
		c0.103,0.055,0.201,0.129,0.295,0.225s0.201,0.224,0.321,0.382l4.779,6.101c0.034,0.058,0.09,0.087,0.167,0.087h0.116
		c0.068,0,0.103-0.041,0.103-0.125v-6.524c0-0.184,0.094-0.275,0.282-0.275h1.349c0.188,0,0.283,0.092,0.283,0.275v7.175
		c0,0.508-0.094,0.852-0.283,1.031c-0.188,0.179-0.479,0.269-0.874,0.269h-1.105c-0.197,0-0.362-0.008-0.495-0.025
		c-0.133-0.017-0.25-0.05-0.353-0.1c-0.103-0.05-0.204-0.123-0.302-0.219s-0.212-0.227-0.34-0.394l-4.792-6.101
		c-0.052-0.058-0.107-0.087-0.167-0.087h-0.116c-0.069,0-0.103,0.041-0.103,0.125v6.524c0,0.184-0.094,0.275-0.283,0.275h-1.349
		c-0.197,0-0.295-0.092-0.295-0.275v-7.175c0-0.509,0.094-0.853,0.282-1.031s0.48-0.269,0.874-0.269H244.717z"/>
	<path fill="#0D71B9" d="M265.17,372.199c0.137,0,0.24,0.05,0.309,0.149l3.43,4.513l3.456-4.513c0.068-0.1,0.171-0.149,0.308-0.149
		h1.683c0.068,0,0.116,0.027,0.142,0.081c0.025,0.054,0.017,0.11-0.026,0.169l-4.612,5.825v2.399c0,0.184-0.094,0.275-0.283,0.275
		h-1.388c-0.197,0-0.295-0.092-0.295-0.275v-2.399l-4.561-5.825c-0.043-0.059-0.054-0.115-0.032-0.169
		c0.021-0.054,0.071-0.081,0.147-0.081H265.17z"/>
	<path fill="#0D71B9" d="M307.554,372.199c0.197,0,0.295,0.092,0.295,0.275v1.225c0,0.191-0.099,0.287-0.295,0.287h-4.034v6.688
		c0,0.184-0.094,0.275-0.283,0.275h-1.4c-0.188,0-0.283-0.092-0.283-0.275v-6.688h-4.034c-0.197,0-0.295-0.096-0.295-0.287v-1.225
		c0-0.184,0.099-0.275,0.295-0.275H307.554z"/>
	<path fill="#0D71B9" d="M319.669,372.199c0.188,0,0.283,0.092,0.283,0.275v8.199c0,0.184-0.094,0.275-0.283,0.275h-1.387
		c-0.197,0-0.295-0.092-0.295-0.275v-8.199c0-0.184,0.098-0.275,0.295-0.275H319.669z"/>
	<path fill="#0D71B9" d="M333.197,372.199c0.188,0,0.351,0.012,0.488,0.037s0.257,0.073,0.36,0.144
		c0.103,0.071,0.195,0.167,0.276,0.288c0.081,0.121,0.165,0.281,0.25,0.48l2.672,6.001c0.034,0.075,0.094,0.112,0.18,0.112h0.154
		c0.085,0,0.146-0.037,0.18-0.112l2.672-6.001c0.085-0.199,0.169-0.359,0.25-0.48c0.081-0.121,0.173-0.217,0.276-0.288
		c0.103-0.07,0.22-0.118,0.353-0.144s0.293-0.037,0.482-0.037h1.375c0.445,0,0.745,0.098,0.899,0.293
		c0.154,0.196,0.231,0.531,0.231,1.007v7.175c0,0.184-0.099,0.275-0.296,0.275h-1.31c-0.188,0-0.283-0.092-0.283-0.275v-6.524
		c0-0.084-0.035-0.125-0.103-0.125h-0.116c-0.085,0-0.141,0.033-0.167,0.1l-2.595,5.601c-0.103,0.225-0.208,0.414-0.314,0.568
		c-0.107,0.154-0.223,0.281-0.347,0.381c-0.124,0.101-0.266,0.171-0.424,0.213c-0.159,0.042-0.345,0.063-0.559,0.063h-0.617
		c-0.214,0-0.401-0.021-0.559-0.063c-0.159-0.042-0.3-0.112-0.424-0.213c-0.125-0.1-0.24-0.227-0.347-0.381
		s-0.212-0.344-0.314-0.568l-2.595-5.601c-0.026-0.066-0.082-0.1-0.167-0.1h-0.116c-0.069,0-0.103,0.041-0.103,0.125v6.524
		c0,0.184-0.094,0.275-0.282,0.275h-1.311c-0.197,0-0.295-0.092-0.295-0.275v-7.175c0-0.476,0.077-0.811,0.231-1.007
		c0.154-0.195,0.458-0.293,0.912-0.293H333.197z"/>
	<path fill="#0D71B9" d="M364.133,372.199c0.197,0,0.297,0.092,0.297,0.275v1.188c0,0.183-0.1,0.274-0.297,0.274h-5.613
		c-0.334,0-0.61,0.027-0.829,0.081c-0.218,0.055-0.394,0.146-0.527,0.275s-0.225,0.304-0.276,0.524
		c-0.052,0.222-0.077,0.494-0.077,0.819v0.125h7.259c0.188,0,0.281,0.092,0.281,0.274v0.988c0,0.183-0.094,0.274-0.281,0.274h-7.259
		v0.213c0,0.325,0.025,0.598,0.077,0.818c0.051,0.222,0.143,0.396,0.276,0.525s0.309,0.221,0.527,0.275
		c0.218,0.054,0.495,0.081,0.829,0.081h5.613c0.197,0,0.297,0.092,0.297,0.274v1.188c0,0.184-0.1,0.275-0.297,0.275h-5.652
		c-0.651,0-1.203-0.059-1.657-0.175c-0.454-0.117-0.824-0.307-1.111-0.569c-0.287-0.262-0.497-0.604-0.629-1.024
		s-0.199-0.932-0.199-1.531v-2.15c0-0.6,0.066-1.108,0.199-1.525s0.342-0.756,0.629-1.019c0.287-0.262,0.657-0.454,1.111-0.575
		c0.454-0.12,1.006-0.181,1.657-0.181H364.133z"/>
	<path fill="#0D71B9" d="M393.9,372.199c0.326,0,0.6,0.064,0.822,0.193s0.441,0.381,0.656,0.756l4.252,7.514
		c0.043,0.083,0.055,0.151,0.033,0.206c-0.021,0.054-0.084,0.081-0.188,0.081h-1.631c-0.146,0-0.244-0.054-0.295-0.162l-0.912-1.613
		H390.6l-0.887,1.613c-0.061,0.108-0.158,0.162-0.295,0.162h-1.67c-0.111,0-0.178-0.027-0.199-0.081
		c-0.021-0.055-0.012-0.123,0.031-0.206l4.215-7.514c0.213-0.375,0.424-0.627,0.629-0.756s0.445-0.193,0.719-0.193H393.9z
		 M391.408,377.724h4.42l-2.043-3.662c-0.033-0.059-0.08-0.088-0.141-0.088h-0.078c-0.059,0-0.105,0.029-0.141,0.088
		L391.408,377.724z"/>
	<path fill="#0D71B9" d="M412.004,372.199c0.205,0,0.377,0.008,0.514,0.024s0.256,0.052,0.359,0.106s0.201,0.129,0.295,0.225
		c0.096,0.096,0.201,0.224,0.322,0.382l4.779,6.101c0.033,0.058,0.09,0.087,0.166,0.087h0.117c0.068,0,0.102-0.041,0.102-0.125
		v-6.524c0-0.184,0.094-0.275,0.283-0.275h1.35c0.188,0,0.281,0.092,0.281,0.275v7.175c0,0.508-0.094,0.852-0.281,1.031
		c-0.189,0.179-0.48,0.269-0.875,0.269h-1.104c-0.197,0-0.363-0.008-0.496-0.025c-0.133-0.017-0.25-0.05-0.354-0.1
		c-0.102-0.05-0.203-0.123-0.301-0.219c-0.1-0.096-0.213-0.227-0.342-0.394l-4.791-6.101c-0.051-0.058-0.107-0.087-0.168-0.087
		h-0.115c-0.068,0-0.102,0.041-0.102,0.125v6.524c0,0.184-0.096,0.275-0.283,0.275h-1.35c-0.197,0-0.295-0.092-0.295-0.275v-7.175
		c0-0.509,0.094-0.853,0.283-1.031c0.188-0.179,0.479-0.269,0.873-0.269H412.004z"/>
	<path fill="#0D71B9" d="M432.457,372.199c0.137,0,0.24,0.05,0.309,0.149l3.43,4.513l3.457-4.513c0.068-0.1,0.17-0.149,0.309-0.149
		h1.682c0.068,0,0.115,0.027,0.143,0.081c0.025,0.054,0.016,0.11-0.027,0.169l-4.611,5.825v2.399c0,0.184-0.094,0.275-0.283,0.275
		h-1.387c-0.197,0-0.295-0.092-0.295-0.275v-2.399l-4.563-5.825c-0.043-0.059-0.053-0.115-0.031-0.169s0.07-0.081,0.148-0.081
		H432.457z"/>
	<path fill="#0D71B9" d="M466.336,372.199c0.084,0,0.145,0.054,0.18,0.162l2.08,6.726c0.01,0.059,0.043,0.087,0.104,0.087h0.064
		c0.051,0,0.086-0.028,0.102-0.087l2.082-6.163c0.094-0.283,0.219-0.475,0.373-0.575c0.154-0.1,0.346-0.149,0.578-0.149h1.271
		c0.283,0,0.498,0.054,0.648,0.162s0.271,0.296,0.367,0.563l2.133,6.163c0.016,0.059,0.051,0.087,0.102,0.087h0.078
		c0.051,0,0.084-0.028,0.102-0.087l2.031-6.726c0.016-0.066,0.045-0.11,0.082-0.131c0.039-0.021,0.08-0.031,0.123-0.031h1.734
		c0.068,0,0.109,0.029,0.121,0.087c0.014,0.059,0.008,0.126-0.02,0.2l-2.465,7.513c-0.121,0.375-0.254,0.627-0.398,0.757
		c-0.146,0.129-0.344,0.193-0.592,0.193h-1.504c-0.248,0-0.443-0.066-0.584-0.2c-0.141-0.133-0.275-0.383-0.404-0.75l-2.018-5.938
		c-0.008-0.059-0.043-0.088-0.102-0.088h-0.053c-0.059,0-0.094,0.029-0.102,0.088l-2.043,5.938c-0.129,0.367-0.264,0.617-0.404,0.75
		c-0.143,0.134-0.338,0.2-0.586,0.2h-1.465c-0.145,0-0.271-0.013-0.379-0.037c-0.107-0.025-0.203-0.073-0.289-0.145
		c-0.086-0.07-0.16-0.168-0.225-0.293s-0.127-0.283-0.186-0.476l-2.365-7.513c-0.025-0.083-0.031-0.152-0.018-0.206
		c0.012-0.054,0.053-0.081,0.121-0.081H466.336z"/>
	<path fill="#0D71B9" d="M492.492,372.199c0.189,0,0.283,0.092,0.283,0.275v3.249h6.012v-3.249c0-0.184,0.094-0.275,0.283-0.275
		h1.387c0.197,0,0.297,0.092,0.297,0.275v8.199c0,0.184-0.1,0.275-0.297,0.275h-1.387c-0.189,0-0.283-0.092-0.283-0.275v-3.325
		h-6.012v3.325c0,0.184-0.094,0.275-0.283,0.275h-1.387c-0.197,0-0.297-0.092-0.297-0.275v-8.199c0-0.184,0.1-0.275,0.297-0.275
		H492.492z"/>
	<path fill="#0D71B9" d="M520.59,372.199c0.197,0,0.297,0.092,0.297,0.275v1.188c0,0.183-0.1,0.274-0.297,0.274h-5.613
		c-0.334,0-0.611,0.027-0.828,0.081c-0.219,0.055-0.395,0.146-0.527,0.275s-0.225,0.304-0.277,0.524
		c-0.051,0.222-0.076,0.494-0.076,0.819v0.125h7.258c0.189,0,0.283,0.092,0.283,0.274v0.988c0,0.183-0.094,0.274-0.283,0.274h-7.258
		v0.213c0,0.325,0.025,0.598,0.076,0.818c0.053,0.222,0.145,0.396,0.277,0.525s0.309,0.221,0.527,0.275
		c0.217,0.054,0.494,0.081,0.828,0.081h5.613c0.197,0,0.297,0.092,0.297,0.274v1.188c0,0.184-0.1,0.275-0.297,0.275h-5.652
		c-0.65,0-1.203-0.059-1.656-0.175c-0.455-0.117-0.826-0.307-1.111-0.569c-0.287-0.262-0.498-0.604-0.631-1.024
		s-0.199-0.932-0.199-1.531v-2.15c0-0.6,0.066-1.108,0.199-1.525s0.344-0.756,0.631-1.019c0.285-0.262,0.656-0.454,1.111-0.575
		c0.453-0.12,1.006-0.181,1.656-0.181H520.59z"/>
	<path fill="#0D71B9" d="M538.641,372.199c0.984,0,1.691,0.217,2.119,0.65c0.43,0.433,0.643,1.074,0.643,1.925v0.712
		c0,0.717-0.148,1.283-0.449,1.7c-0.299,0.417-0.787,0.684-1.465,0.8l2.197,2.65c0.043,0.042,0.057,0.104,0.039,0.188
		s-0.086,0.125-0.205,0.125h-1.658c-0.111,0-0.189-0.013-0.23-0.037c-0.043-0.025-0.086-0.067-0.129-0.125l-2.031-2.601h-4.148
		v2.487c0,0.184-0.094,0.275-0.283,0.275h-1.387c-0.197,0-0.297-0.092-0.297-0.275v-8.1c0-0.25,0.129-0.375,0.387-0.375H538.641z
		 M533.322,376.661h4.92c0.438,0,0.746-0.091,0.926-0.274s0.27-0.463,0.27-0.838v-0.524c0-0.375-0.09-0.654-0.27-0.838
		s-0.488-0.274-0.926-0.274h-4.754c-0.111,0-0.166,0.05-0.166,0.149V376.661z"/>
	<path fill="#0D71B9" d="M560.738,372.199c0.197,0,0.295,0.092,0.295,0.275v1.188c0,0.183-0.098,0.274-0.295,0.274h-5.615
		c-0.334,0-0.609,0.027-0.828,0.081c-0.219,0.055-0.395,0.146-0.527,0.275s-0.225,0.304-0.275,0.524
		c-0.051,0.222-0.078,0.494-0.078,0.819v0.125h7.26c0.188,0,0.283,0.092,0.283,0.274v0.988c0,0.183-0.096,0.274-0.283,0.274h-7.26
		v0.213c0,0.325,0.027,0.598,0.078,0.818c0.051,0.222,0.143,0.396,0.275,0.525s0.309,0.221,0.527,0.275
		c0.219,0.054,0.494,0.081,0.828,0.081h5.615c0.197,0,0.295,0.092,0.295,0.274v1.188c0,0.184-0.098,0.275-0.295,0.275h-5.652
		c-0.652,0-1.205-0.059-1.658-0.175c-0.453-0.117-0.824-0.307-1.111-0.569c-0.287-0.262-0.496-0.604-0.629-1.024
		s-0.199-0.932-0.199-1.531v-2.15c0-0.6,0.066-1.108,0.199-1.525s0.342-0.756,0.629-1.019c0.287-0.262,0.658-0.454,1.111-0.575
		c0.453-0.12,1.006-0.181,1.658-0.181H560.738z"/>
</g>
<g>
	<defs>
		<path id="SVGID_1_" d="M171.046,334.07h11.598v3.257h-11.598V334.07z M160.315,324.305c0.843-1.196,6.475-3.824,16.53-3.824
			c10.056,0,15.686,2.628,16.531,3.824c-0.029,3.08-0.919,5.95-2.419,8.411c-4.207-2.248-9.009-3.53-14.112-3.53
			c-5.103,0-9.904,1.282-14.112,3.53C161.234,330.255,160.343,327.385,160.315,324.305 M149.465,324.15
			c0,5.701,1.753,10.996,4.745,15.385c-4.578,5.267-7.369,12.128-7.369,19.654c0,7.867,3.051,15.004,8.005,20.355
			c-2.466-3.967-3.915-8.634-3.915-13.648c0-14.312,11.602-25.914,25.914-25.914s25.914,11.602,25.914,25.914
			c0,5.015-1.448,9.682-3.915,13.648c4.954-5.352,8.006-12.488,8.006-20.355c0-7.526-2.792-14.386-7.37-19.654
			c2.992-4.389,4.746-9.684,4.746-15.385c0-8.82-10.747-14.519-27.381-14.519C160.212,309.631,149.465,315.33,149.465,324.15"/>
	</defs>
	<clipPath id="SVGID_2_">
		<use xlink:href="#SVGID_1_"  overflow="visible"/>
	</clipPath>
	
		<linearGradient id="SVGID_3_" gradientUnits="userSpaceOnUse" x1="0.0454" y1="720.0469" x2="1.0465" y2="720.0469" gradientTransform="matrix(-122.8235 171.1765 171.1765 122.8235 -123025.9219 -88167.1641)">
		<stop  offset="0" style="stop-color:#E6E7E8"/>
		<stop  offset="0.0056" style="stop-color:#E6E7E8"/>
		<stop  offset="0.048" style="stop-color:#A3A5A7"/>
		<stop  offset="0.0854" style="stop-color:#717375"/>
		<stop  offset="0.1125" style="stop-color:#4F5052"/>
		<stop  offset="0.1264" style="stop-color:#414042"/>
		<stop  offset="0.1978" style="stop-color:#C9CACC"/>
		<stop  offset="0.2967" style="stop-color:#E6E7E8"/>
		<stop  offset="0.4176" style="stop-color:#C9CACC"/>
		<stop  offset="0.5549" style="stop-color:#414042"/>
		<stop  offset="0.7582" style="stop-color:#C9CACC"/>
		<stop  offset="0.8462" style="stop-color:#E6E7E8"/>
		<stop  offset="0.9396" style="stop-color:#C9CACC"/>
		<stop  offset="1" style="stop-color:#414042"/>
	</linearGradient>
	<polygon clip-path="url(#SVGID_2_)" fill="url(#SVGID_3_)" points="239.966,333.392 186.456,407.969 113.726,355.783 
		167.236,281.207 	"/>
</g>
<g>
	<defs>
		<path id="SVGID_4_" d="M176.103,383.225h1.487v3.061h-1.487V383.225z M161.688,379.701l2.164-2.166l1.05,1.051l-2.163,2.164
			L161.688,379.701z M188.788,378.586l1.053-1.051l2.163,2.166l-1.05,1.049L188.788,378.586z M156.151,364.85h3.062v1.485h-3.062
			V364.85z M194.479,364.85h3.062v1.485h-3.062V364.85z M185.725,354.418l2.629,2.631l-7.726,7.725
			c0.11,0.367,0.165,0.746,0.165,1.123c0,2.177-1.77,3.947-3.947,3.947c-2.177,0-3.947-1.771-3.947-3.947
			c0-2.176,1.77-3.946,3.947-3.946c0.393,0,0.785,0.06,1.169,0.178L185.725,354.418z M161.688,351.484l1.051-1.051l2.163,2.164
			l-1.05,1.053L161.688,351.484z M188.788,352.598l2.166-2.164l1.05,1.051l-2.163,2.166L188.788,352.598z M176.103,344.898h1.487
			v3.062h-1.487V344.898z M154.373,365.896c0,12.393,10.081,22.473,22.473,22.473c12.391,0,22.472-10.08,22.472-22.473
			c0-12.391-10.081-22.471-22.472-22.471C164.454,343.425,154.373,353.506,154.373,365.896"/>
	</defs>
	<clipPath id="SVGID_5_">
		<use xlink:href="#SVGID_4_"  overflow="visible"/>
	</clipPath>
	
		<linearGradient id="SVGID_6_" gradientUnits="userSpaceOnUse" x1="0.3945" y1="719.8711" x2="1.3945" y2="719.8711" gradientTransform="matrix(19.8824 30.5882 30.5882 -19.8824 -21857.8164 14655.4678)">
		<stop  offset="0" style="stop-color:#0D71BA"/>
		<stop  offset="1" style="stop-color:#1A1866"/>
	</linearGradient>
	<polygon clip-path="url(#SVGID_5_)" fill="url(#SVGID_6_)" points="185.968,322.888 219.854,375.02 167.722,408.906 
		133.835,356.773 	"/>
</g>
<g>
	<defs>
		<path id="SVGID_7_" d="M438.871,338.385l-7.605,12.274c-4.043,6.502-6.756,10.491-8.135,11.967
			c7.025-2.131,11.859-3.634,14.506-4.509l12.945-19.732H438.871z M226.95,331.931l-3.672,5.511h16.528l-15.845,25.184
			c7.325-2.104,12.428-3.573,15.309-4.405l13.719-20.779h11.543l3.775-5.511H226.95z M252.409,362.626
			c4.167-1.163,9.27-2.631,15.309-4.405l18.017-26.229l-13.74-0.061L252.409,362.626z M325.579,331.931l-16.552,7.232
			c-1.664-1.816-3.956-4.227-6.876-7.232h-11.987l-17.887,26.965h11.986c8.263-10.601,12.39-17.404,12.385-20.409l8.801,6.721
			l15.873-6.618l-13.631,20.306h12.227c7.765-11.474,13.728-20.463,17.886-26.965H325.579z M341.628,331.931l-17.272,26.965h35.653
			l3.171-4.877h-22.815l3.999-6.188h16.324c1.233-1.256,2.214-2.677,2.937-4.261h-16.801l4.072-5.759h22.368l4.053-5.88H341.628z
			 M398.287,331.931l-3.672,5.511h16.527l-15.846,25.184c7.324-2.104,12.428-3.573,15.311-4.405l13.719-20.779h11.543l3.773-5.511
			H398.287z M504.512,362.626c4.166-1.163,9.271-2.631,15.311-4.405l18.016-26.229l-13.74-0.061L504.512,362.626z M570.783,331.931
			l-6.203,8.975c-2.705-2.419-5.998-5.41-9.883-8.975h-12.088l-18.23,26.965h12.055c9.559-12.554,14.223-19.48,13.994-20.777
			l10.588,8.339l-8.395,12.438h10.484l18.053-27.006L570.783,331.931z M443.748,331.767l-3.33,4.938h17.143
			c0.182-0.013,0.385-0.021,0.611-0.021c0.615,0,1.377,0.062,2.287,0.185c1.488,0.177,2.262,0.437,2.324,0.778
			c-0.854,1.367-2.563,2.711-5.129,4.037c-2.287,1.229-4.721,2.158-7.295,2.787c4.244,6.255,8.904,11.065,13.982,14.425h1.914
			h11.303h0.924l6.309-9.917h11.818l-6.482,9.917h11.986l13.736-20.675h-11.611c-0.311,0.56-1.875,2.589-4.697,6.086l-12.318,0.062
			c1.504-2.063,4.674-3.9,9.514-5.512c3.777-1.23,7.41-1.992,10.914-2.328c-0.004,0.003-0.02,0.008-0.02,0.011
			c0.008,0.043,0.354,0.063,1.035,0.063c0.846,0.013,1.711,0.019,2.6,0.019c1.799,0,3.66-0.027,5.586-0.082l2.973-4.65h-15.848
			c-6.922,0-13.52,1.762-19.797,5.287c-5.717,3.224-9.516,6.911-11.4,11.064c-0.352,0.767-1.27,2.345-2.729,4.69
			c-0.326-0.299-0.656-0.592-0.977-0.9c-2.871-2.73-4.975-5.231-6.309-7.499c2.311-0.464,5.012-1.509,8.105-3.135
			c3.094-1.625,4.998-3.066,5.709-4.324c0.313-1.188,0.422-2.062,0.324-2.622c-0.254-1.434-2.602-2.343-7.037-2.726L443.748,331.767
			z"/>
	</defs>
	<clipPath id="SVGID_8_">
		<use xlink:href="#SVGID_7_"  overflow="visible"/>
	</clipPath>
	
		<linearGradient id="SVGID_9_" gradientUnits="userSpaceOnUse" x1="0.0825" y1="720.002" x2="1.0825" y2="720.002" gradientTransform="matrix(0 168.4798 168.4798 0 -120903.5781 263.875)">
		<stop  offset="0" style="stop-color:#E6E7E8"/>
		<stop  offset="0.0056" style="stop-color:#E6E7E8"/>
		<stop  offset="0.048" style="stop-color:#A3A5A7"/>
		<stop  offset="0.0854" style="stop-color:#717375"/>
		<stop  offset="0.1125" style="stop-color:#4F5052"/>
		<stop  offset="0.1264" style="stop-color:#414042"/>
		<stop  offset="0.1978" style="stop-color:#C9CACC"/>
		<stop  offset="0.2967" style="stop-color:#E6E7E8"/>
		<stop  offset="0.4176" style="stop-color:#C9CACC"/>
		<stop  offset="0.5549" style="stop-color:#414042"/>
		<stop  offset="0.7582" style="stop-color:#C9CACC"/>
		<stop  offset="0.8462" style="stop-color:#E6E7E8"/>
		<stop  offset="0.9396" style="stop-color:#C9CACC"/>
		<stop  offset="1" style="stop-color:#414042"/>
	</linearGradient>
	<rect x="223.277" y="331.725" clip-path="url(#SVGID_8_)" fill="url(#SVGID_9_)" width="357.881" height="30.901"/>
</g>
<g>
	<defs>
		<path id="SVGID_10_" d="M385.359,347.681c-0.213-1.21,0.23-2.226,1.328-3.051c1.018-0.607,1.559-0.931,1.619-0.972
			c0.906-0.493,1.957-0.74,3.152-0.74c1.684,0,2.617,0.51,2.799,1.533c0.164,0.945-0.4,1.954-1.699,3.026
			c-1.406,1.184-3.053,1.83-4.936,1.938C386.293,349.281,385.539,348.702,385.359,347.681 M369.393,341.066l-1.395,2.093h6.277
			l-6.018,9.563c2.781-0.799,4.719-1.356,5.813-1.674l5.211-7.89h4.148c-1.871,1.142-2.777,2.64-2.689,4.505
			c0.01,0.109,0.023,0.216,0.043,0.319c0.164,0.941,0.828,1.71,1.988,2.311c1.287,0.675,2.852,1.013,4.691,1.013
			c3.277,0,5.854-0.638,7.73-1.914c1.66-1.126,2.73-2.698,3.215-4.715c-0.258-0.971-0.82-1.774-1.686-2.413
			c-1.014-0.756-2.279-1.149-3.797-1.174c-0.174-0.006-0.35-0.008-0.521-0.008c-2.955,0-5.5,0.459-7.629,1.377
			c-0.336,0.145-0.648,0.297-0.943,0.456l1.266-1.849H369.393z"/>
	</defs>
	<clipPath id="SVGID_11_">
		<use xlink:href="#SVGID_10_"  overflow="visible"/>
	</clipPath>
	
		<linearGradient id="SVGID_12_" gradientUnits="userSpaceOnUse" x1="0.6372" y1="719.7002" x2="1.6372" y2="719.7002" gradientTransform="matrix(12 17.1765 17.1765 -12 -11989.4395 8967.9453)">
		<stop  offset="0" style="stop-color:#0D71BA"/>
		<stop  offset="1" style="stop-color:#1A1866"/>
	</linearGradient>
	<polygon clip-path="url(#SVGID_11_)" fill="url(#SVGID_12_)" points="388.434,326.79 403.881,348.9 377.973,367 362.525,344.89 	
		"/>
</g>
</svg>
