<?xml version="1.0" encoding="UTF-8"?><svg xmlns="http://www.w3.org/2000/svg" xmlns:xlink="http://www.w3.org/1999/xlink" fill-rule="evenodd" height="27.6" preserveAspectRatio="xMidYMid meet" version="1.0" viewBox="9.7 16.2 100.3 27.6" width="100.3" zoomAndPan="magnify">
 <g id="change1_1"><path d="m95.678 42.9l14.322-13.065-6.784-13.516z" fill="#097939"/></g>
 <g id="change2_1"><path d="m90.854 42.9l14.322-13.065-6.784-13.516z" fill="#ed752e"/></g>
 <g id="change3_1"><path d="m22.41 16.47l-6.03 21.475 21.407 0.15 5.88-21.625h5.427l-7.05 25.14c-0.27 0.96-1.298 1.74-2.295 1.74h-27.439c-1.664 0-2.65-1.3-2.2-2.9l6.724-23.98zm66.182-0.15h5.427l-7.538 27.03h-5.58zm-38.894 11.262l27.136-0.15 1.81-5.707h-27.59l1.658-5.256 29.4-0.27c1.83-0.017 2.92 1.4 2.438 3.167l-2.77 10.124c-0.483 1.766-2.36 3.197-4.19 3.197h-24.274l-2.862 11.113h-5.28z" fill="#747474"/></g>
</svg>