<?xml version="1.0" encoding="UTF-8"?><svg xmlns="http://www.w3.org/2000/svg" xmlns:xlink="http://www.w3.org/1999/xlink" height="80.0" preserveAspectRatio="xMidYMid meet" version="1.0" viewBox="-1.9 -1.5 152.9 155.4" width="80.0" zoomAndPan="magnify"><g><g id="change1_1"><path d="M51.5,4.2C32.9,10.6,17,24.5,8.2,42.2c-3.1,6.1-5.3,12.5-6.7,19.3c-3.4,16.6-1,34.4,6.6,49.5 c5,9.9,12.1,18.7,20.8,25.5c8.2,6.5,17.7,11.4,27.8,14c12.8,3.4,26.3,3.3,39.2,0.4c11.6-2.7,22.6-8.2,31.4-16.3 c9.3-8.5,15.9-19.7,19.4-31.8c3.8-13.1,4.3-27.2,1.9-40.6c-24,0-48,0-72,0c0,10,0,19.9,0,29.9c13.9,0,27.8,0,41.7,0 c-1.6,9.5-7.3,18.3-15.3,23.7c-5.1,3.4-10.9,5.6-16.9,6.7c-6,1-12.3,1.2-18.3,0c-6.1-1.2-11.9-3.8-17-7.4 c-8.1-5.7-14.4-14.1-17.5-23.5c-3.3-9.6-3.3-20.2,0-29.8c2.3-6.7,6.1-13,11.1-18.1c6.2-6.3,14.2-10.9,22.9-12.7 c7.4-1.6,15.2-1.3,22.5,0.9c6.2,1.9,11.8,5.3,16.5,9.7c4.7-4.7,9.4-9.4,14.1-14.1c2.5-2.5,5.1-4.9,7.4-7.5 c-7.1-6.6-15.5-11.9-24.6-15.3C86.6-1.4,68.1-1.5,51.5,4.2z" fill="#FFF"/></g><g><g id="change2_1"><path d="M51.5,4.2c16.5-5.7,35.1-5.6,51.6,0.5c9.1,3.4,17.5,8.6,24.6,15.3c-2.4,2.6-5,5-7.4,7.5 c-4.7,4.7-9.4,9.4-14.1,14.1c-4.6-4.4-10.3-7.8-16.5-9.7c-7.2-2.2-15.1-2.5-22.5-0.9c-8.6,1.9-16.7,6.4-22.9,12.7 c-5,5.1-8.8,11.3-11.1,18.1c-8.4-6.5-16.7-13-25.1-19.5C17,24.5,32.9,10.6,51.5,4.2z" fill="#EA4335"/></g></g><g><g id="change3_1"><path d="M1.5,61.4c1.4-6.7,3.6-13.2,6.7-19.3c8.4,6.5,16.7,13,25.1,19.5c-3.3,9.6-3.3,20.2,0,29.8 c-8.4,6.5-16.7,13-25.1,19.5C0.5,95.7-1.8,78,1.5,61.4z" fill="#FBBC05"/></g></g><g><g id="change4_1"><path d="M76.5,62.2c24,0,48,0,72,0c2.4,13.5,1.9,27.5-1.9,40.6c-3.5,12.1-10.1,23.2-19.4,31.8 c-8.1-6.3-16.2-12.6-24.3-18.9c8-5.4,13.7-14.1,15.3-23.7c-13.9,0-27.8,0-41.7,0C76.5,82.1,76.5,72.1,76.5,62.2z" fill="#4285F4"/></g></g><g><g id="change5_1"><path d="M8.2,110.9c8.4-6.5,16.7-13,25.1-19.5c3.2,9.4,9.4,17.8,17.5,23.5c5.1,3.6,10.9,6.1,17,7.4 c6,1.2,12.2,1.1,18.3,0c6-1.1,11.8-3.3,16.9-6.7c8.1,6.3,16.2,12.6,24.3,18.9c-8.8,8.1-19.7,13.6-31.4,16.3 c-12.8,2.9-26.4,3-39.2-0.4c-10.1-2.7-19.6-7.5-27.8-14C20.3,129.6,13.1,120.7,8.2,110.9z" fill="#34A853"/></g></g></g></svg>